:SAMPLES-PER-SECOND 30
:FRAME-RANGE 1-564
:FULLY-SPECIFIED
:DEGREES
106
root  34.7439 39.5513 153.394 169.734 -26.5364 -178.524
RightUpLeg  -2.34386 10.0862 2.0798
RightLeg  28.7534 -5.10208 -3.25227
RightFoot  -12.6387 0.0120062 8.63686
RightToes  -1.74624e-010 0 -3.6325e-017
Spine  9.67163 2.19508 3.38184
Spine1  1.05055 3.28694 -6.19768
HEad  27.1496 18.5188 -2.67342
LeftShoulder1  3.2298 -3.8318 -37.9085
LeftArm  31.3077 8.94557 -27.4873
LeftForeArm  -5.83654 -9.11754 -17.0351
LeftHand  -1.27775 -4.08132 15.86
RightShoulder  6.20437 4.1421 68.796
RightArm  18.9283 1.55178 -5.38366
RightForeArm  13.1172 6.26143 14.3518
RightHand  0.926356 20.6038 3.59919
LeftUpLeg  17.6855 8.54299 4.82071
LeftLeg  -0.0872166 -2.54616 -0.249167
LeftFoot  -10.5213 0.0281632 4.90981
LeftToes  -6.43926e-010 8.38805e-011 -3.16407e-011
107
root  34.6045 39.5493 153.042 169.502 -25.8484 -178.126
RightUpLeg  -3.73184 8.47548 1.1649
RightLeg  27.3678 -5.69237 -3.41373
RightFoot  -12.1671 -0.0139821 9.52897
RightToes  -1.74624e-010 0 -3.6325e-017
Spine  10.0731 1.62587 3.35636
Spine1  0.825379 2.62525 -5.58898
HEad  26.2964 17.4374 -3.40692
LeftShoulder1  3.24162 -3.8842 -37.7626
LeftArm  30.4661 8.70834 -27.9301
LeftForeArm  -5.24113 -8.62394 -17.2359
LeftHand  -1.25022 -3.77223 16.03
RightShoulder  5.70084 3.49881 68.9865
RightArm  18.0399 1.23064 -5.44682
RightForeArm  14.0569 5.50081 14.5293
RightHand  0.963775 20.7366 3.74186
LeftUpLeg  18.5505 8.72269 5.34969
LeftLeg  -0.223804 -1.76566 -0.160668
LeftFoot  -10.9732 0.0511299 4.63216
LeftToes  -6.43926e-010 8.38805e-011 -3.16407e-011
108
root  34.4756 39.5063 152.638 169.442 -24.877 -177.85
RightUpLeg  -5.2108 7.95103 0.00378924
RightLeg  24.6427 -6.31019 -3.36835
RightFoot  -10.9181 -0.110601 9.79333
RightToes  -1.74624e-010 0 -3.6325e-017
Spine  10.5012 1.2141 3.36648
Spine1  0.539054 2.16611 -5.11175
HEad  25.5838 16.7218 -3.86675
LeftShoulder1  3.28149 -4.02828 -37.4654
LeftArm  30.4897 8.53022 -28.4482
LeftForeArm  -5.27391 -8.50462 -17.305
LeftHand  -1.22421 -4.05094 15.261
RightShoulder  5.15137 2.80994 69.1235
RightArm  17.3764 0.744918 -5.49815
RightForeArm  14.0556 4.77458 14.7435
RightHand  0.974695 20.5556 3.82119
LeftUpLeg  19.5152 8.85867 5.81019
LeftLeg  -0.575611 -1.0426 -0.11885
LeftFoot  -11.4594 0.0734742 4.40905
LeftToes  -6.43926e-010 8.38805e-011 -3.16407e-011
109
root  34.3519 39.4403 152.169 169.557 -23.8905 -177.696
RightUpLeg  -6.47337 7.77389 -1.32544
RightLeg  20.6609 -7.30289 -3.24173
RightFoot  -9.12667 -0.255845 9.9945
RightToes  -1.74624e-010 0 -3.6325e-017
Spine  10.7745 0.880715 2.93607
Spine1  0.373584 1.64439 -4.09352
HEad  24.7023 16.5229 -4.53436
LeftShoulder1  3.31533 -4.05931 -37.7246
LeftArm  31.1699 8.15094 -28.6133
LeftForeArm  -5.0591 -8.58576 -17.2932
LeftHand  -1.29902 -5.03869 14.6965
RightShoulder  4.71529 2.26349 69.2551
RightArm  16.7439 0.348704 -5.85706
RightForeArm  14.5123 3.7212 15.0479
RightHand  1.09336 20.6218 4.33355
LeftUpLeg  20.4088 8.85765 6.05654
LeftLeg  -0.852898 -0.213778 0.0404128
LeftFoot  -12.1223 0.10024 4.01168
LeftToes  -6.43926e-010 8.38805e-011 -3.16407e-011
110
root  34.2276 39.338 151.621 169.741 -22.9049 -177.699
RightUpLeg  -7.45244 7.85431 -2.76739
RightLeg  15.8918 -8.433 -2.98674
RightFoot  -6.19732 -0.489618 9.93451
RightToes  -1.74624e-010 0 -3.6325e-017
Spine  11.0467 0.477571 2.68883
Spine1  0.0598229 1.16053 -3.58837
HEad  24.005 16.2886 -4.79091
LeftShoulder1  3.35656 -4.13135 -37.8468
LeftArm  32.3239 8.13784 -28.6885
LeftForeArm  -4.93883 -9.03861 -17.0938
LeftHand  -1.33036 -5.61547 14.2856
RightShoulder  4.28152 1.71164 69.5054
RightArm  15.4545 0.0485455 -6.08817
RightForeArm  15.5124 1.87811 15.4584
RightHand  1.1192 21.0687 4.36049
LeftUpLeg  21.3489 8.54296 5.85044
LeftLeg  -1.08081 1.14383 0.536862
LeftFoot  -12.8463 0.122645 3.45827
LeftToes  -6.43926e-010 8.38805e-011 -3.16407e-011
111
root  34.1034 39.1953 150.971 169.95 -21.9937 -177.739
RightUpLeg  -7.62455 4.54909 -3.33681
RightLeg  9.53695 -6.17019 -3.44297
RightFoot  -2.13581 -0.87291 10.6323
RightToes  -1.74624e-010 0 -3.6325e-017
Spine  10.6878 0.147604 2.43859
Spine1  0.612 0.74186 -2.99952
HEad  23.1637 17.0055 -4.86322
LeftShoulder1  3.3765 -4.15852 -37.9474
LeftArm  33.6521 7.50137 -29.0107
LeftForeArm  -6.32391 -9.32177 -17.0788
LeftHand  -1.26659 -4.97157 14.4295
RightShoulder  3.87488 1.20674 69.6455
RightArm  14.1401 -0.240347 -6.32891
RightForeArm  16.3475 0.125421 15.7137
RightHand  1.17827 20.7215 4.68759
LeftUpLeg  22.3209 8.59599 6.05494
LeftLeg  -1.00343 2.0224 0.624622
LeftFoot  -13.7799 0.149341 3.12606
LeftToes  -6.43926e-010 8.38805e-011 -3.16407e-011
112
root  33.9842 39.0294 150.216 170.302 -21.0418 -177.855
RightUpLeg  -7.38766 0.289975 -3.50369
RightLeg  2.50837 -2.27363 -4.16386
RightFoot  1.31843 -1.26562 11.4553
RightToes  -1.74624e-010 0 -3.6325e-017
Spine  10.3618 -0.141012 2.63353
Spine1  0.749909 0.529555 -3.08983
HEad  23.1141 17.1279 -4.61557
LeftShoulder1  3.3769 -4.20477 -37.6985
LeftArm  34.6148 6.87579 -29.5065
LeftForeArm  -6.53036 -9.13795 -17.251
LeftHand  -1.25553 -4.97864 14.298
RightShoulder  3.35217 0.550674 69.9793
RightArm  13.2903 -0.728233 -6.62416
RightForeArm  16.7848 -1.67229 15.9572
RightHand  1.31217 21.0505 5.20139
LeftUpLeg  23.5116 8.47429 6.03546
LeftLeg  -1.36783 3.24701 0.844471
LeftFoot  -14.395 0.159327 2.73322
LeftToes  -6.43926e-010 8.38805e-011 -3.16407e-011
113
root  33.8828 38.818 149.361 170.742 -19.9426 -177.977
RightUpLeg  -7.51016 -0.305429 -3.95129
RightLeg  -2.7927 -1.51258 -4.36017
RightFoot  2.11621 -1.35149 11.542
RightToes  -1.74624e-010 0 -3.6325e-017
Spine  10.1872 -0.214696 2.76336
Spine1  0.471712 0.455739 -2.84923
HEad  23.4026 17.9039 -4.42327
LeftShoulder1  3.34925 -4.09951 -37.9311
LeftArm  35.3433 6.32989 -29.6994
LeftForeArm  -6.50694 -9.12917 -17.2933
LeftHand  -1.26969 -5.21858 14.1416
RightShoulder  2.78522 -0.121469 69.8265
RightArm  13.3481 -1.42558 -6.81314
RightForeArm  15.6218 -2.74909 16.2051
RightHand  1.55306 20.5172 6.3896
LeftUpLeg  24.7223 8.46854 6.18852
LeftLeg  -1.50193 4.33272 0.945126
LeftFoot  -15.3735 0.151587 1.68449
LeftToes  -6.43926e-010 8.38805e-011 -3.16407e-011
114
root  33.842 38.615 148.375 171.277 -18.9935 -178.182
RightUpLeg  -8.12149 -0.184419 -4.182
RightLeg  -5.54579 -2.39805 -4.34214
RightFoot  0.816523 -1.16912 10.9989
RightToes  -1.74624e-010 0 -3.6325e-017
Spine  9.97743 -0.295746 2.50277
Spine1  0.0620213 0.325162 -2.5713
HEad  23.5736 19.1029 -4.18205
LeftShoulder1  3.29648 -3.98151 -37.9198
LeftArm  34.5307 6.52762 -29.9096
LeftForeArm  -7.30168 -9.48003 -17.0774
LeftHand  -1.14312 -3.65402 14.8772
RightShoulder  2.41498 -0.578463 70.0434
RightArm  14.0298 -2.09438 -7.37356
RightForeArm  14.7752 -3.95442 16.5349
RightHand  1.54781 20.3894 6.40158
LeftUpLeg  25.6557 8.70752 6.62314
LeftLeg  -0.72822 4.81162 0.989135
LeftFoot  -16.4211 0.0885317 -0.224715
LeftToes  -6.43926e-010 8.38805e-011 -3.16407e-011
115
root  33.8294 38.426 147.354 171.934 -18.4575 -178.065
RightUpLeg  -8.50774 -0.564519 -4.09842
RightLeg  -7.45452 -4.11446 -3.42735
RightFoot  0.34948 -1.07687 10.5143
RightToes  -1.74624e-010 0 -3.6325e-017
Spine  9.52061 -0.448611 2.75813
Spine1  0.189076 0.137259 -1.99905
HEad  23.3192 20.0392 -3.95364
LeftShoulder1  3.29495 -3.99504 -37.8239
LeftArm  33.3891 6.55284 -30.1155
LeftForeArm  -5.88293 -9.42641 -16.9688
LeftHand  -1.27708 -4.78916 14.7945
RightShoulder  1.87269 -1.22475 69.9453
RightArm  14.6238 -2.52774 -7.29369
RightForeArm  14.996 -5.20157 16.75
RightHand  1.31184 20.8072 5.25495
LeftUpLeg  26.7657 8.75394 7.29311
LeftLeg  -1.1714 5.56367 1.15802
LeftFoot  -17.1207 0.0150491 -1.73544
LeftToes  -6.43926e-010 8.38805e-011 -3.16407e-011
116
root  33.8753 38.3791 146.282 172.35 -18.3043 -177.554
RightUpLeg  -8.06705 -0.527115 -3.32536
RightLeg  -8.41612 -5.9676 -2.57786
RightFoot  2.2144 -1.18274 10.0551
RightToes  -1.74624e-010 0 -3.6325e-017
Spine  9.37161 -0.650836 3.87963
Spine1  0.572104 -0.037595 -1.58635
HEad  22.5308 20.9822 -3.81253
LeftShoulder1  3.30987 -4.06239 -37.6379
LeftArm  33.7388 6.25457 -30.3784
LeftForeArm  -6.36892 -9.82089 -16.7712
LeftHand  -1.30227 -5.04282 14.7266
RightShoulder  1.67852 -1.46042 70.0173
RightArm  13.694 -3.95566 -7.39634
RightForeArm  14.0898 -5.32282 16.5896
RightHand  1.11061 20.422 4.44931
LeftUpLeg  28.0117 9.01813 8.94443
LeftLeg  -1.68606 5.14603 1.16627
LeftFoot  -17.0767 -0.123961 -4.51552
LeftToes  -6.43926e-010 8.38805e-011 -3.16407e-011
117
root  33.9909 38.3611 145.091 172.49 -17.3666 -177.254
RightUpLeg  -7.24927 0.564273 -1.9288
RightLeg  -8.43985 -5.1825 -3.20779
RightFoot  7.43505 -1.80263 11.1809
RightToes  -1.74624e-010 0 -3.6325e-017
Spine  9.18367 -0.41151 4.77387
Spine1  1.56413 0.192483 -0.956876
HEad  21.5558 21.6791 -4.20318
LeftShoulder1  3.32268 -4.055 -37.8421
LeftArm  34.536 5.63113 -30.2718
LeftForeArm  -6.51049 -10.1864 -16.5947
LeftHand  -1.36577 -5.59297 14.6823
RightShoulder  1.17092 -2.07849 70.4096
RightArm  15.7315 -3.31319 -7.34802
RightForeArm  10.2606 -6.2313 17.232
RightHand  1.28954 20.1592 5.30631
LeftUpLeg  29.9192 9.15012 10.5056
LeftLeg  -2.12778 4.79267 1.21663
LeftFoot  -15.913 -0.22128 -7.91949
LeftToes  -6.43926e-010 8.38805e-011 -3.16407e-011
